<svg width="199" height="48" viewBox="0 0 199 48" fill="none" xmlns="http://www.w3.org/2000/svg">
<path d="M114.245 6L108.086 24.2626H104.423L99.83 10.7483L95.1576 24.2626H91.4674L85.3084 6H88.8923L93.5116 19.8796L98.3167 6H101.502L106.201 19.9579L110.953 6H114.245Z" fill="#2E2E2E"/>
<path d="M129.002 17.375C129.002 17.6011 128.985 17.9229 128.949 18.3403H117.826C118.02 19.3665 118.525 20.184 119.339 20.7927C120.171 21.3841 121.197 21.6798 122.419 21.6798C123.976 21.6798 125.259 21.1754 126.268 20.1666L128.047 22.1755C127.41 22.9234 126.604 23.4886 125.631 23.8713C124.657 24.2539 123.56 24.4452 122.339 24.4452C120.781 24.4452 119.41 24.1409 118.224 23.5321C117.038 22.9234 116.118 22.0798 115.463 21.0014C114.826 19.9057 114.507 18.6708 114.507 17.2967C114.507 15.9401 114.817 14.7226 115.436 13.6442C116.074 12.5485 116.95 11.6962 118.065 11.0874C119.18 10.4787 120.436 10.1743 121.834 10.1743C123.215 10.1743 124.445 10.4787 125.525 11.0874C126.622 11.6788 127.471 12.5224 128.073 13.6181C128.693 14.6965 129.002 15.9488 129.002 17.375ZM121.834 12.7833C120.773 12.7833 119.87 13.0963 119.127 13.7225C118.401 14.3312 117.959 15.1487 117.799 16.1749H125.843C125.702 15.1661 125.268 14.3486 124.542 13.7225C123.817 13.0963 122.914 12.7833 121.834 12.7833Z" fill="#2E2E2E"/>
<path d="M137.217 10.1743C139.305 10.1743 140.898 10.67 141.995 11.6614C143.11 12.6354 143.668 14.1138 143.668 16.0966V24.2626H140.535V22.5668C140.128 23.1756 139.544 23.6452 138.783 23.9756C138.04 24.2887 137.137 24.4452 136.075 24.4452C135.013 24.4452 134.084 24.2713 133.288 23.9235C132.491 23.5582 131.872 23.0625 131.429 22.4364C131.005 21.7928 130.792 21.071 130.792 20.2709C130.792 19.0186 131.261 18.0185 132.199 17.2706C133.155 16.5054 134.651 16.1227 136.686 16.1227H140.349V15.914C140.349 14.94 140.049 14.1921 139.447 13.6703C138.863 13.1485 137.987 12.8876 136.819 12.8876C136.022 12.8876 135.235 13.0094 134.456 13.2529C133.695 13.4964 133.049 13.8355 132.518 14.2704L131.217 11.8962C131.96 11.3396 132.854 10.9135 133.898 10.6178C134.943 10.3222 136.049 10.1743 137.217 10.1743ZM136.766 22.0711C137.597 22.0711 138.332 21.8885 138.969 21.5232C139.624 21.1406 140.084 20.6014 140.349 19.9057V18.2881H136.925C135.013 18.2881 134.058 18.9056 134.058 20.1405C134.058 20.7318 134.297 21.2015 134.774 21.5493C135.252 21.8972 135.916 22.0711 136.766 22.0711Z" fill="#2E2E2E"/>
<path d="M148.245 6H156.369C158.351 6 160.112 6.38265 161.652 7.14794C163.192 7.89583 164.386 8.9655 165.236 10.3569C166.085 11.731 166.51 13.3224 166.51 15.1313C166.51 16.9402 166.085 18.5403 165.236 19.9318C164.386 21.3058 163.192 22.3755 161.652 23.1408C160.112 23.8887 158.351 24.2626 156.369 24.2626H148.245V6ZM156.21 21.3928C157.572 21.3928 158.767 21.1406 159.794 20.6362C160.838 20.1144 161.634 19.3839 162.183 18.4447C162.749 17.4881 163.032 16.3836 163.032 15.1313C163.032 13.879 162.749 12.7833 162.183 11.844C161.634 10.8874 160.838 10.1569 159.794 9.65252C158.767 9.13073 157.572 8.86984 156.21 8.86984H151.697V21.3928H156.21Z" fill="#2E2E2E"/>
<path d="M175.275 10.1743C177.364 10.1743 178.957 10.67 180.054 11.6614C181.169 12.6354 181.727 14.1138 181.727 16.0966V24.2626H178.594V22.5668C178.187 23.1756 177.603 23.6452 176.842 23.9756C176.098 24.2887 175.196 24.4452 174.134 24.4452C173.072 24.4452 172.143 24.2713 171.346 23.9235C170.55 23.5582 169.931 23.0625 169.488 22.4364C169.063 21.7928 168.851 21.071 168.851 20.2709C168.851 19.0186 169.32 18.0185 170.258 17.2706C171.214 16.5054 172.709 16.1227 174.745 16.1227H178.408V15.914C178.408 14.94 178.107 14.1921 177.505 13.6703C176.921 13.1485 176.045 12.8876 174.877 12.8876C174.081 12.8876 173.293 13.0094 172.515 13.2529C171.753 13.4964 171.107 13.8355 170.577 14.2704L169.276 11.8962C170.019 11.3396 170.913 10.9135 171.957 10.6178C173.001 10.3222 174.107 10.1743 175.275 10.1743ZM174.824 22.0711C175.656 22.0711 176.39 21.8885 177.028 21.5232C177.682 21.1406 178.143 20.6014 178.408 19.9057V18.2881H174.983C173.072 18.2881 172.116 18.9056 172.116 20.1405C172.116 20.7318 172.355 21.2015 172.833 21.5493C173.311 21.8972 173.975 22.0711 174.824 22.0711Z" fill="#2E2E2E"/>
<path d="M199 10.3308L192.363 25.3845C191.744 26.8977 190.991 27.9586 190.107 28.5674C189.222 29.1935 188.151 29.5066 186.894 29.5066C186.186 29.5066 185.487 29.3935 184.797 29.1674C184.107 28.9413 183.54 28.6283 183.098 28.2282L184.425 25.828C184.744 26.1237 185.116 26.3585 185.54 26.5324C185.983 26.7063 186.425 26.7933 186.868 26.7933C187.452 26.7933 187.93 26.6455 188.301 26.3498C188.691 26.0541 189.045 25.5584 189.363 24.8627L189.602 24.3148L183.416 10.3308H186.868L191.328 20.6362L195.814 10.3308H199Z" fill="#2E2E2E"/>
<path d="M89.0026 32.6514H89.748L90.5138 35.0697L91.6574 38.7222C92.0317 37.0097 92.3006 35.7955 92.464 35.0797L93.0358 32.551H93.6689L92.1066 39.3142H91.2387L90.5546 37.1769L89.3906 33.4642C89.1319 34.3873 88.7677 35.6249 88.298 37.1769L87.6548 39.3142H86.7869L85 32.551H85.6637L87.2361 38.6821C87.6922 37.0832 88.0428 35.8758 88.2878 35.0596L89.0026 32.6514Z" fill="#2E2E2E"/>
<path d="M98.2403 36.4845V36.2537C98.2403 35.7921 98.1075 35.4242 97.8421 35.1499C97.5834 34.8757 97.2328 34.7385 96.7904 34.7385C96.3547 34.7385 95.9905 34.889 95.6978 35.1901C95.4051 35.4911 95.2349 35.9226 95.1873 36.4845H98.2403ZM98.5568 38.4412V39.0634C98.1484 39.264 97.6719 39.3644 97.1273 39.3644C96.3581 39.3644 95.7319 39.1303 95.2486 38.662C94.7721 38.187 94.5338 37.5649 94.5338 36.7956C94.5338 35.9795 94.7448 35.3373 95.1669 34.869C95.5889 34.4007 96.1369 34.1666 96.8108 34.1666C97.4438 34.1666 97.9476 34.3706 98.322 34.7787C98.6964 35.1867 98.8835 35.762 98.8835 36.5046C98.8835 36.732 98.8699 36.9127 98.8427 37.0464H95.1873C95.2349 37.6084 95.4323 38.0399 95.7795 38.3409C96.1267 38.6352 96.5861 38.7824 97.1579 38.7824C97.7434 38.7824 98.2096 38.6687 98.5568 38.4412Z" fill="#2E2E2E"/>
<path d="M102.994 36.8959H101.983C101.5 36.8959 101.139 36.9896 100.901 37.1769C100.662 37.3575 100.543 37.585 100.543 37.8592C100.543 38.1402 100.635 38.3676 100.819 38.5416C101.01 38.7155 101.285 38.8025 101.646 38.8025C102.055 38.8025 102.381 38.6921 102.626 38.4713C102.871 38.2506 102.994 37.9696 102.994 37.6284V36.8959ZM100.257 35.16V34.4977C100.652 34.2636 101.139 34.1465 101.718 34.1465C102.984 34.1465 103.617 34.7987 103.617 36.1032V39.3142H102.994V38.7222C102.708 39.1503 102.211 39.3644 101.503 39.3644C101.027 39.3644 100.635 39.2273 100.329 38.953C100.029 38.672 99.8796 38.3141 99.8796 37.8793C99.8796 37.391 100.07 37.013 100.451 36.7454C100.839 36.4711 101.35 36.334 101.983 36.334H102.994V36.1032C102.994 35.6483 102.895 35.3072 102.698 35.0797C102.5 34.8456 102.17 34.7285 101.707 34.7285C101.17 34.7285 100.686 34.8723 100.257 35.16Z" fill="#2E2E2E"/>
<path d="M106.071 34.7486V37.9094C106.071 38.4914 106.346 38.7824 106.898 38.7824C107.17 38.7824 107.401 38.7055 107.592 38.5516V39.1737C107.395 39.3008 107.167 39.3644 106.908 39.3644C105.928 39.3644 105.438 38.8694 105.438 37.8793V34.7486H104.59V34.2268H105.438V32.9524H106.071V34.2268H107.551V34.7486H106.071Z" fill="#2E2E2E"/>
<path d="M109.453 32.2199V35.0998C109.766 34.4643 110.314 34.1465 111.097 34.1465C111.594 34.1465 111.992 34.297 112.292 34.5981C112.591 34.8991 112.741 35.2871 112.741 35.762V39.3142H112.118V35.9527C112.118 35.558 112.016 35.257 111.812 35.0496C111.607 34.8422 111.339 34.7385 111.005 34.7385C110.583 34.7385 110.219 34.8991 109.912 35.2202C109.606 35.5346 109.453 35.9627 109.453 36.5046V39.3142H108.83V32.2199H109.453Z" fill="#2E2E2E"/>
<path d="M117.625 36.4845V36.2537C117.625 35.7921 117.492 35.4242 117.226 35.1499C116.968 34.8757 116.617 34.7385 116.175 34.7385C115.739 34.7385 115.375 34.889 115.082 35.1901C114.789 35.4911 114.619 35.9226 114.572 36.4845H117.625ZM117.941 38.4412V39.0634C117.533 39.264 117.056 39.3644 116.512 39.3644C115.742 39.3644 115.116 39.1303 114.633 38.662C114.156 38.187 113.918 37.5649 113.918 36.7956C113.918 35.9795 114.129 35.3373 114.551 34.869C114.973 34.4007 115.521 34.1666 116.195 34.1666C116.828 34.1666 117.332 34.3706 117.706 34.7787C118.081 35.1867 118.268 35.762 118.268 36.5046C118.268 36.732 118.254 36.9127 118.227 37.0464H114.572C114.619 37.6084 114.817 38.0399 115.164 38.3409C115.511 38.6352 115.97 38.7824 116.542 38.7824C117.128 38.7824 117.594 38.6687 117.941 38.4412Z" fill="#2E2E2E"/>
<path d="M120.152 34.2268V35.0897C120.438 34.4743 120.921 34.1666 121.602 34.1666C121.65 34.1666 121.735 34.1733 121.857 34.1866V34.8088C121.721 34.7686 121.585 34.7486 121.449 34.7486C121.081 34.7486 120.772 34.9292 120.52 35.2904C120.275 35.645 120.152 36.0397 120.152 36.4745V39.3142H119.529V34.2268H120.152Z" fill="#2E2E2E"/>
<path d="M129.032 32.551V33.123H127.122V39.3142H126.489V33.123H124.59V32.551H129.032Z" fill="#2E2E2E"/>
<path d="M132.022 39.4045C131.294 39.4045 130.715 39.157 130.286 38.662C129.857 38.167 129.643 37.5448 129.643 36.7956C129.643 36.053 129.864 35.4276 130.307 34.9192C130.749 34.4107 131.321 34.1565 132.022 34.1565C132.791 34.1565 133.387 34.4074 133.809 34.9091C134.238 35.4041 134.452 36.033 134.452 36.7956C134.452 37.5515 134.234 38.177 133.799 38.672C133.37 39.1604 132.778 39.4045 132.022 39.4045ZM132.022 34.7385C131.484 34.7385 131.062 34.9392 130.756 35.3406C130.45 35.742 130.296 36.227 130.296 36.7956C130.296 37.3508 130.453 37.8291 130.766 38.2305C131.086 38.6252 131.505 38.8225 132.022 38.8225C132.587 38.8225 133.023 38.6285 133.329 38.2405C133.642 37.8459 133.799 37.3642 133.799 36.7956C133.799 36.2069 133.652 35.7186 133.36 35.3306C133.067 34.9359 132.621 34.7385 132.022 34.7385Z" fill="#2E2E2E"/>
<path d="M136.449 38.2606C136.742 38.6285 137.109 38.8125 137.552 38.8125C137.994 38.8125 138.375 38.6553 138.695 38.3409C139.015 38.0198 139.175 37.488 139.175 36.7454C139.175 36.3708 139.121 36.0464 139.012 35.7721C138.91 35.4911 138.773 35.2804 138.603 35.1399C138.44 34.9927 138.273 34.8891 138.103 34.8288C137.94 34.7619 137.776 34.7285 137.613 34.7285C137.15 34.7285 136.769 34.9125 136.469 35.2804C136.17 35.6416 136.02 36.1601 136.02 36.8357C136.02 37.4177 136.163 37.8927 136.449 38.2606ZM139.175 32.2199H139.798V39.3142H139.175V38.5717C138.814 39.1202 138.28 39.3945 137.572 39.3945C136.878 39.3945 136.336 39.147 135.948 38.652C135.56 38.1502 135.366 37.5415 135.366 36.8257C135.366 36.0363 135.574 35.3941 135.989 34.8991C136.405 34.3974 136.939 34.1465 137.592 34.1465C138.266 34.1465 138.794 34.4275 139.175 34.9894V32.2199Z" fill="#2E2E2E"/>
<path d="M144.196 36.8959H143.185C142.701 36.8959 142.341 36.9896 142.102 37.1769C141.864 37.3575 141.745 37.585 141.745 37.8592C141.745 38.1402 141.837 38.3676 142.021 38.5416C142.211 38.7155 142.487 38.8025 142.848 38.8025C143.256 38.8025 143.583 38.6921 143.828 38.4713C144.073 38.2506 144.196 37.9696 144.196 37.6284V36.8959ZM141.459 35.16V34.4977C141.854 34.2636 142.341 34.1465 142.919 34.1465C144.185 34.1465 144.818 34.7987 144.818 36.1032V39.3142H144.196V38.7222C143.91 39.1503 143.413 39.3644 142.705 39.3644C142.228 39.3644 141.837 39.2273 141.531 38.953C141.231 38.672 141.081 38.3141 141.081 37.8793C141.081 37.391 141.272 37.013 141.653 36.7454C142.041 36.4711 142.552 36.334 143.185 36.334H144.196V36.1032C144.196 35.6483 144.097 35.3072 143.899 35.0797C143.702 34.8456 143.372 34.7285 142.909 34.7285C142.371 34.7285 141.888 34.8723 141.459 35.16Z" fill="#2E2E2E"/>
<path d="M147.742 39.1737L145.628 34.2268H146.343L147.048 35.9326L148.048 38.381C148.096 38.2272 148.392 37.411 148.937 35.9326L149.57 34.2268H150.264L148.385 39.1838C148.127 39.8728 147.82 40.3478 147.466 40.6087C147.112 40.8696 146.711 41 146.261 41C146.125 41 145.996 40.9833 145.873 40.9498V40.3478C145.996 40.3812 146.112 40.3979 146.221 40.3979C146.949 40.3979 147.456 39.9899 147.742 39.1737Z" fill="#2E2E2E"/>
<path d="M50.4011 5.10974C54.4331 8.41458 57.1897 13.0132 58.2 18.12C66.0201 18.66 72.5581 24.9302 72.9302 33C72.9956 34.4171 74.4186 48 58.9767 48C58.9767 44.4651 60.093 42.0465 63.4419 42C67.907 42 67.2757 36.091 67.1628 33C66.9767 27.907 62.1402 24 57.1473 24H52.6357V22.5C52.6357 13.38 45.2366 6 36.093 6C28.5135 6 22.1671 11.07 20.182 18H18.0465C11.3994 18 6.0155 23.37 6.0155 30C6.0155 36.63 11.3994 42 18.0465 42H20.7442H52.6357C52.6357 42 53.2093 48 45.5969 48H18.0465C8.09085 48 0 39.93 0 30C-0.000516315 25.565 1.64214 21.2863 4.61235 17.986C7.58256 14.6856 11.6708 12.5965 16.0915 12.12C19.8512 4.92 27.4006 0 36.093 0C41.3118 -0.00117615 46.3691 1.8049 50.4011 5.10974Z" fill="#323232"/>
<path fill-rule="evenodd" clip-rule="evenodd" d="M35.7895 12.2104C35.7895 14.06 37.2888 15.5593 39.1383 15.5593H39.1579V29.6129C39.1579 29.6374 39.138 29.6572 39.1136 29.6572C39.0891 29.6572 39.0693 29.6771 39.069 29.7016C39.0597 30.7728 38.7119 31.8147 38.0737 32.6811C37.4268 33.5594 36.5148 34.212 35.4692 34.5449C34.4235 34.8778 33.298 34.8738 32.2547 34.5335C31.2115 34.1932 30.3043 33.5342 29.6637 32.6514C29.0231 31.7685 28.6822 30.7073 28.6901 29.6205C28.698 28.5337 29.0542 27.4775 29.7074 26.6038C30.3607 25.73 31.2774 25.0839 32.3254 24.7585C32.8387 24.5991 33.3706 24.5206 33.902 24.5229C34.8242 24.5268 35.7801 24.088 36.078 23.2152C36.3786 22.3343 35.9031 21.3595 34.9799 21.2414C33.7545 21.0846 32.5025 21.1907 31.3109 21.5607C29.5787 22.0987 28.0637 23.1665 26.984 24.6106C25.9043 26.0546 25.3156 27.8004 25.3026 29.5965C25.2896 31.3927 25.853 33.1466 26.9117 34.6058C27.9705 36.065 29.4699 37.1542 31.1941 37.7166C32.9184 38.279 34.7785 38.2855 36.5068 37.7354C38.235 37.1852 39.7423 36.1067 40.8115 34.655C41.8264 33.2771 42.397 31.6304 42.4524 29.9306C42.453 29.9106 42.4694 29.8947 42.4894 29.8947C42.5098 29.8947 42.5263 29.8781 42.5263 29.8577V15.1578C42.5263 14.758 42.387 14.3907 42.1542 14.1018C41.6122 12.9824 40.4654 12.2104 39.1383 12.2104L35.7895 12.2104Z" fill="#323232"/>
</svg>
