<svg width="25" height="117" viewBox="0 0 25 117" fill="none" xmlns="http://www.w3.org/2000/svg">
<path d="M0.799997 86.4591L19 92.3611L19 97.8731L7.924 101.357L19 104.997L19 110.509L0.799999 116.411L0.799999 111.107L12.422 107.441L0.799998 103.593L0.799998 98.8611L12.526 95.1951L0.799998 91.3731L0.799997 86.4591ZM11.98 71.4856C12.0147 71.4856 12.422 71.5116 13.202 71.5636L13.202 81.8076C13.93 81.5996 14.4933 81.2009 14.892 80.6116C15.2733 80.0049 15.464 79.2509 15.464 78.3496C15.464 77.6736 15.3687 77.0929 15.178 76.6076C14.9873 76.1049 14.6753 75.6023 14.242 75.0996L16.946 72.4996C18.4713 73.8689 19.234 75.8709 19.234 78.5056C19.234 80.1523 18.922 81.5996 18.298 82.8476C17.674 84.0956 16.8073 85.0663 15.698 85.7596C14.5887 86.4356 13.332 86.7736 11.928 86.7736C10.5413 86.7736 9.302 86.4443 8.21 85.7856C7.10066 85.1096 6.234 84.1823 5.61 83.0036C4.986 81.8249 4.674 80.4989 4.674 79.0256C4.674 77.6216 4.96866 76.3476 5.558 75.2036C6.13 74.0596 6.97066 73.1583 8.08 72.4996C9.172 71.8236 10.472 71.4856 11.98 71.4856ZM8.184 78.9996C8.184 79.7623 8.40066 80.4036 8.834 80.9236C9.26733 81.4263 9.85666 81.7469 10.602 81.8856L10.602 76.1136C9.85666 76.2523 9.26733 76.5816 8.834 77.1016C8.40066 77.6043 8.184 78.2369 8.184 78.9996ZM4.674 63.5828C4.674 61.2428 5.21133 59.4575 6.286 58.2268C7.34333 56.9961 8.97266 56.3808 11.174 56.3808L19 56.3808L19 60.9828L17.18 60.9828C18.5493 61.6935 19.234 63.0801 19.234 65.1428C19.234 66.2348 19.0433 67.1795 18.662 67.9768C18.2807 68.7741 17.7693 69.3808 17.128 69.7968C16.4693 70.1955 15.724 70.3948 14.892 70.3948C13.5573 70.3948 12.526 69.8835 11.798 68.8608C11.0527 67.8381 10.68 66.2608 10.68 64.1288L10.68 61.3208C9.18933 61.4075 8.444 62.4041 8.444 64.3108C8.444 64.9868 8.55666 65.6715 8.782 66.3648C8.99 67.0581 9.28466 67.6475 9.666 68.1328L6.312 69.7968C5.792 69.0168 5.39333 68.0721 5.116 66.9628C4.82133 65.8361 4.674 64.7095 4.674 63.5828ZM16.114 63.7648C16.114 63.1928 15.9753 62.6901 15.698 62.2568C15.4207 61.8235 15.0133 61.5115 14.476 61.3208L13.254 61.3208L13.254 63.4528C13.254 64.8915 13.7307 65.6108 14.684 65.6108C15.1173 65.6108 15.464 65.4461 15.724 65.1168C15.984 64.7875 16.114 64.3368 16.114 63.7648ZM0.799996 53.0286L0.799996 44.4226C0.799996 42.4293 1.17266 40.6613 1.918 39.1186C2.66333 37.576 3.72066 36.38 5.09 35.5306C6.45933 34.6813 8.06266 34.2566 9.9 34.2566C11.7373 34.2566 13.3407 34.6813 14.71 35.5306C16.0793 36.38 17.1367 37.576 17.882 39.1186C18.6273 40.6613 19 42.4293 19 44.4226L19 53.0286L0.799996 53.0286ZM14.892 44.6306C14.892 43.0706 14.45 41.8226 13.566 40.8866C12.682 39.9333 11.46 39.4566 9.9 39.4566C8.34 39.4566 7.118 39.9333 6.234 40.8866C5.35 41.8226 4.908 43.0706 4.908 44.6306L4.908 47.8806L14.892 47.8806L14.892 44.6306ZM4.674 25.7762C4.674 23.4362 5.21133 21.6508 6.286 20.4202C7.34333 19.1895 8.97266 18.5742 11.174 18.5742L19 18.5742L19 23.1762L17.18 23.1762C18.5493 23.8868 19.234 25.2735 19.234 27.3362C19.234 28.4282 19.0433 29.3728 18.662 30.1702C18.2807 30.9675 17.7693 31.5742 17.128 31.9902C16.4693 32.3888 15.724 32.5882 14.892 32.5882C13.5573 32.5882 12.526 32.0768 11.798 31.0542C11.0527 30.0315 10.68 28.4542 10.68 26.3222L10.68 23.5142C9.18933 23.6008 8.444 24.5975 8.444 26.5042C8.444 27.1802 8.55666 27.8648 8.782 28.5582C8.99 29.2515 9.28466 29.8408 9.666 30.3262L6.312 31.9902C5.792 31.2102 5.39333 30.2655 5.116 29.1562C4.82133 28.0295 4.674 26.9028 4.674 25.7762ZM16.114 25.9582C16.114 25.3862 15.9753 24.8835 15.698 24.4502C15.4207 24.0168 15.0133 23.7048 14.476 23.5142L13.254 23.5142L13.254 25.6462C13.254 27.0848 13.7307 27.8042 14.684 27.8042C15.1173 27.8042 15.464 27.6395 15.724 27.3102C15.984 26.9808 16.114 26.5302 16.114 25.9582ZM4.90799 0.863897L19.572 6.9479C21.3053 7.65856 22.5187 8.52523 23.212 9.5479C23.9227 10.5706 24.278 11.8186 24.278 13.2919C24.278 14.0372 24.1567 14.7912 23.914 15.5539C23.6887 16.2992 23.3853 16.9059 23.004 17.3739L19.546 15.6579C19.806 15.3806 20.0053 15.0512 20.144 14.6699C20.3 14.2712 20.378 13.8726 20.378 13.4739C20.378 13.0059 20.2827 12.6246 20.092 12.3299C19.9013 12.0179 19.598 11.7579 19.182 11.5499L4.90799 17.5819L4.90799 12.5119L13.514 9.0539L4.90799 5.5699L4.90799 0.863897Z" fill="#2E2E2E"/>
</svg>
